HIERARCHY
ROOT hip
{
  OFFSET 0 0 0
  CHANNELS 6 Xposition Yposition Zposition Zrotation Yrotation Xrotation
  JOINT abdomen
  {
    OFFSET 0 20.6881 -0.73152
    CHANNELS 3 Zrotation Xrotation Yrotation
    JOINT chest
    {
      OFFSET 0 11.7043 -0.48768
      CHANNELS 3 Zrotation Xrotation Yrotation
      JOINT neck
      {
        OFFSET 0 22.1894 -2.19456
        CHANNELS 3 Zrotation Xrotation Yrotation
        JOINT head
        {
          OFFSET -0.24384 7.07133 1.2192
          CHANNELS 3 Zrotation Xrotation Yrotation
          JOINT leftEye
          {
            OFFSET 4.14528 8.04674 8.04672
            CHANNELS 3 Zrotation Xrotation Yrotation
            End Site
            {
              OFFSET 1 0 0
            }
          }
          JOINT rightEye
          {
            OFFSET -3.6576 8.04674 8.04672
            CHANNELS 3 Zrotation Xrotation Yrotation
            End Site
            {
              OFFSET 1 0 0
            }
          }
        }
      }
      JOINT rCollar
      {
        OFFSET -2.68224 19.2634 -4.8768
        CHANNELS 3 Zrotation Xrotation Yrotation
        JOINT rShldr
        {
          OFFSET -8.77824 -1.95073 1.46304
          CHANNELS 3 Zrotation Xrotation Yrotation
          JOINT rForeArm
          {
            OFFSET -28.1742 -1.7115 0.48768
            CHANNELS 3 Zrotation Xrotation Yrotation
            JOINT rHand
            {
              OFFSET -22.5879 0.773209 7.07136
              CHANNELS 3 Zrotation Xrotation Yrotation
              JOINT rThumb1
              {
                OFFSET -1.2192 -0.487915 3.41376
                CHANNELS 3 Zrotation Xrotation Yrotation
                JOINT rThumb2
                {
                  OFFSET -3.37035 -0.52449 3.41376
                  CHANNELS 3 Zrotation Xrotation Yrotation
                  End Site
                  {
                    OFFSET -1.78271 -1.18214 1.43049
                  }
                }
              }
              JOINT rIndex1
              {
                OFFSET -7.75947 0.938293 5.60832
                CHANNELS 3 Zrotation Xrotation Yrotation
                JOINT rIndex2
                {
                  OFFSET -2.54057 -0.884171 1.56538
                  CHANNELS 3 Zrotation Xrotation Yrotation
                  End Site
                  {
                    OFFSET -1.62519 -0.234802 1.16502
                  }
                }
              }
              JOINT rMid1
              {
                OFFSET -8.24714 1.18213 3.41376
                CHANNELS 3 Zrotation Xrotation Yrotation
                JOINT rMid2
                {
                  OFFSET -3.10165 -0.590103 1.0647
                  CHANNELS 3 Zrotation Xrotation Yrotation
                  End Site
                  {
                    OFFSET -2.48547 -0.328903 0.83742
                  }
                }
              }
              JOINT rRing1
              {
                OFFSET -8.82822 0.546677 1.51678
                CHANNELS 3 Zrotation Xrotation Yrotation
                JOINT rRing2
                {
                  OFFSET -2.60934 -0.819778 -0.0198488
                  CHANNELS 3 Zrotation Xrotation Yrotation
                  End Site
                  {
                    OFFSET -2.33842 -0.294052 0.168128
                  }
                }
              }
              JOINT rPinky1
              {
                OFFSET -8.27202 -0.0477905 -0.4584
                CHANNELS 3 Zrotation Xrotation Yrotation
                JOINT rPinky2
                {
                  OFFSET -1.82734 -0.647385 -0.700984
                  CHANNELS 3 Zrotation Xrotation Yrotation
                  End Site
                  {
                    OFFSET -1.69225 -0.51767 -0.607171
                  }
                }
              }
            }
          }
        }
      }
      JOINT lCollar
      {
        OFFSET 2.68224 19.2634 -4.8768
        CHANNELS 3 Zrotation Xrotation Yrotation
        JOINT lShldr
        {
          OFFSET 8.77824 -1.95073 1.46304
          CHANNELS 3 Zrotation Xrotation Yrotation
          JOINT lForeArm
          {
            OFFSET 28.1742 -1.7115 0.48768
            CHANNELS 3 Zrotation Xrotation Yrotation
            JOINT lHand
            {
              OFFSET 22.5879 0.773209 7.07136
              CHANNELS 3 Zrotation Xrotation Yrotation
              JOINT lThumb1
              {
                OFFSET 1.2192 -0.487915 3.41376
                CHANNELS 3 Zrotation Xrotation Yrotation
                JOINT lThumb2
                {
                  OFFSET 3.37035 -0.52449 3.41376
                  CHANNELS 3 Zrotation Xrotation Yrotation
                  End Site
                  {
                    OFFSET 1.78271 -1.18214 1.43049
                  }
                }
              }
              JOINT lIndex1
              {
                OFFSET 7.75947 0.938293 5.60832
                CHANNELS 3 Zrotation Xrotation Yrotation
                JOINT lIndex2
                {
                  OFFSET 2.54057 -0.884171 1.56538
                  CHANNELS 3 Zrotation Xrotation Yrotation
                  End Site
                  {
                    OFFSET 1.62519 -0.234802 1.16502
                  }
                }
              }
              JOINT lMid1
              {
                OFFSET 8.24714 1.18213 3.41376
                CHANNELS 3 Zrotation Xrotation Yrotation
                JOINT lMid2
                {
                  OFFSET 3.10165 -0.590103 1.0647
                  CHANNELS 3 Zrotation Xrotation Yrotation
                  End Site
                  {
                    OFFSET 2.48547 -0.328903 0.83742
                  }
                }
              }
              JOINT lRing1
              {
                OFFSET 8.82822 0.546677 1.51678
                CHANNELS 3 Zrotation Xrotation Yrotation
                JOINT lRing2
                {
                  OFFSET 2.60934 -0.819778 -0.0198488
                  CHANNELS 3 Zrotation Xrotation Yrotation
                  End Site
                  {
                    OFFSET 2.33842 -0.294052 0.168128
                  }
                }
              }
              JOINT lPinky1
              {
                OFFSET 8.27202 -0.0477905 -0.4584
                CHANNELS 3 Zrotation Xrotation Yrotation
                JOINT lPinky2
                {
                  OFFSET 1.82734 -0.647385 -0.700984
                  CHANNELS 3 Zrotation Xrotation Yrotation
                  End Site
                  {
                    OFFSET 1.69225 -0.51767 -0.607171
                  }
                }
              }
            }
          }
        }
      }
    }
  }
  JOINT rButtock
  {
    OFFSET -8.77824 4.35084 1.2192
    CHANNELS 3 Zrotation Xrotation Yrotation
    JOINT rThigh
    {
      OFFSET 0 -1.70687 -2.19456
      CHANNELS 3 Zrotation Xrotation Yrotation
      JOINT rShin
      {
        OFFSET 0 -36.8199 0.73152
        CHANNELS 3 Zrotation Xrotation Yrotation
        JOINT rFoot
        {
          OFFSET 0.73152 -45.1104 -5.12064
          CHANNELS 3 Zrotation Xrotation Yrotation
          End Site
          {
            OFFSET -1.1221 -3.69964 12.103
          }
        }
      }
    }
  }
  JOINT lButtock
  {
    OFFSET 8.77824 4.35084 1.2192
    CHANNELS 3 Zrotation Xrotation Yrotation
    JOINT lThigh
    {
      OFFSET 0 -1.70687 -2.19456
      CHANNELS 3 Zrotation Xrotation Yrotation
      JOINT lShin
      {
        OFFSET 0 -36.8199 0.73152
        CHANNELS 3 Zrotation Xrotation Yrotation
        JOINT lFoot
        {
          OFFSET -0.73152 -45.1104 -5.12064
          CHANNELS 3 Zrotation Xrotation Yrotation
          End Site
          {
            OFFSET 1.1221 -3.69964 12.103
          }
        }
      }
    }
  }
}
MOTION
Frames:	8
Frame Time:	0.03333
-13.6062 59.8931 -6.587899999999999 -25.012394 -57.549179 18.608043 10.537688 17.878701 -70.74087 15.198142 -7.723398 88.336141 12.809761 20.886476 119.891405 -15.048466 9.450545 -103.529878 19.321914 -5.405797 -31.000017 -179.118576 0.767619 82.103976 -2.291311 -1.788721 -9.531998 115.797545 74.739319 -119.309931 -87.616235 14.471744 -96.020134 -153.668562 -53.67953 165.476683 -2.794649 3.151906 -0.419301 2.798103 -40.662364 11.773133 30.238347 -41.055086 -15.010731 65.081166 -21.197507 13.630906 -8.206663 59.168495 22.561272 -177.835731 4.559218 92.246705 -35.714584 -5.302265 7.824973 -112.861303 -42.11178 -148.662065 -9.043936 -36.011661 -47.285141 -80.839402 -65.603431 140.283083 140.593385 7.386057 -121.103591 -87.66856 -32.545937 -113.724023 -151.362543 77.653825 -122.217198 143.519005 17.939016 -137.562358 48.711121 45.773902 -29.091653 166.090123 68.521723 123.903692 -17.759665 28.507402 26.456627 23.074642 28.210495 -41.629499 153.872726 76.112386 -169.866852 -17.996322 3.186398 20.701392 111.537633 -15.615209 135.684206 -56.538654 13.801788 -24.912107 168.020644 -51.00991 165.455593 -36.436958 -66.395058 -119.041324 6.915967 -6.922392 -8.067616 -33.757956 -19.558853 -63.394831 -73.00078 57.48182 157.20789 179.481352 -25.25245 98.281996 0.443573 27.870544 -0.948802 107.911261 -37.604577 -78.843062 -110.533987 -83.757313 -142.081106 89.343253 28.514001 170.449889
-13.2899 60.22260000000001 -8.8993 -27.628147 -59.53059 21.420383 11.342917 15.374514 -180.0 3.046333 14.780768 -163.864662 16.937645 15.623825 84.374567 -12.865927 4.116808 -65.610847 17.112634 -6.846197 -43.361726 161.928352 -6.337259 38.38776 -5.944597 45.027022 2.697313 34.310973 49.872261 -24.303678 4.762773 2.33572 -125.592032 -129.228816 26.57557 107.980168 -13.648263 25.191424 2.102625 -2.941829 -30.880198 23.264853 3.395338 6.660507 -4.516685 -76.548012 41.871948 71.927104 -155.946976 -31.677236 138.306912 13.650893 69.705022 -54.510264 -109.427399 44.912263 116.856736 25.437066 -0.293345 -6.028954 39.660334 27.611074 -10.522333 29.075213 -38.05428 116.352845 -70.324224 -53.157787 -57.050243 -178.252303 0.816263 130.426189 -128.962093 -22.464103 166.154253 38.165882 17.317208 -15.165149 6.476572 25.652333 -0.574746 175.088798 36.634285 141.012764 101.104276 71.018415 -105.186386 -91.721257 -47.304627 -74.973563 48.635802 77.98682 -74.095772 47.781087 -61.546403 92.195113 -44.605555 33.997247 26.593416 -148.975792 -7.854664 149.81689 169.519748 -50.978597 159.358708 56.208386 -28.896334 -50.602092 4.223649 -8.36242 -4.774736 -31.146523 -18.061671 -112.099015 -90.321912 7.138032 -99.437146 98.373823 17.833159 156.069212 16.103077 28.581367 5.191231 99.233755 -48.058155 -83.105106 35.653001 -89.613749 -52.960012 6.639972 66.75557 -110.398266
-12.782499999999999 60.83969999999999 -11.022 -28.54391 -59.621647 22.84981 13.882389 15.029164 -180.0 5.38523 14.937565 -164.430427 5.612561 5.551869 14.275767 6.243296 -2.606413 10.469106 12.20545 -6.571954 -56.47118 166.156486 -3.784298 30.446555 -0.124147 0.119227 -10.552013 -37.378375 -63.832598 -36.357012 174.445922 18.561063 51.991449 -121.262082 30.431341 92.947392 -157.626071 -6.206844 96.474395 -139.910618 25.030075 92.146497 -68.354419 49.892499 54.3137 -144.714851 1.512723 89.197252 32.318822 -22.316062 15.418957 3.594292 64.545958 32.773126 94.167255 -67.676683 60.690772 97.696681 -65.232843 94.610971 -166.521439 61.21879 -119.486974 -92.479689 28.637123 -3.58409 -92.506775 -59.220332 -72.399657 -179.729686 -12.737222 135.882412 -63.529407 50.416643 131.62679 140.543217 33.464116 -119.929166 -88.626987 -56.401326 -28.199514 -103.044271 -1.466605 -149.323496 120.33685 -60.44213 -170.705357 -14.689172 79.438364 14.741641 136.226181 -62.789028 -146.916383 146.006605 -6.194409 -92.003384 96.561143 -17.800477 142.930096 -117.752561 -48.593705 -47.831993 168.778556 1.485881 165.617087 -90.03659 -49.531884 -109.287379 -178.411088 84.924238 0.0 134.073551 49.27794 137.264661 83.966581 -26.372584 177.103099 42.679919 8.892764 83.178092 7.27411 29.186255 2.409996 106.166667 -39.158136 34.93496 -95.536531 22.927948 -115.837751 156.564267 17.837995 166.685193
-12.0202 61.4343 -12.630700000000001 -28.569674 -60.755629 22.638348 11.731105 18.058564 107.940518 -15.413126 8.443086 -89.551317 -5.364497 11.371416 -63.814993 13.311358 14.078388 91.515404 2.02148 -1.22582 -62.461687 169.88657 -2.441998 27.085721 -146.556148 61.990789 154.07891 -142.229495 -12.790327 178.552729 -149.561573 19.184307 34.763138 -145.6946 3.134191 117.342065 172.734776 -28.6546 85.601514 -154.668808 1.724295 119.341399 8.930703 -37.238306 -14.390389 -31.676596 70.836667 41.829441 -74.4127 36.14642 84.923757 6.836968 -39.415811 24.010836 60.21855 -29.655912 35.052682 79.143165 -68.788456 105.737064 -88.778941 -28.98437 -107.542364 102.415872 6.137394 -2.271436 -66.720439 -57.993189 -52.606193 -9.96271 11.276838 47.887722 -141.889014 -40.694181 -72.492981 154.789824 23.752788 -130.277285 -53.985823 -48.218341 -5.121656 107.760614 -16.480764 64.585803 -21.22284 -51.08417 32.258437 153.052215 -37.152305 -100.813054 21.696694 51.833186 -57.259321 17.327796 -29.523259 72.120284 92.975557 -20.08976 145.740674 -59.223676 0.250381 -36.614047 164.179765 53.444897 179.420631 -174.342366 -66.483395 -129.848215 1.03182 -7.305278 8.061848 -26.055996 -12.39565 -66.29703 -73.561443 53.759042 8.830967 -134.350806 -54.923428 -50.907727 25.432196 33.112589 3.957526 93.648287 -50.037684 92.797851 -74.980781 78.860175 149.495844 -23.496109 61.190655 -71.724641
-11.1174 61.556200000000004 -13.540199999999999 -28.010393 -61.833019 21.338644 11.469047 21.705315 62.820109 -18.76417 -5.484418 -46.529371 14.239841 10.501952 87.383635 -5.57042 0.479193 -58.706177 -7.463093 4.667293 -63.99793 176.236582 -0.89541 26.757744 -71.853706 82.491907 76.047422 21.15997 -1.515134 -8.650212 -172.009158 -6.224582 -79.783206 -27.946985 -45.143934 -50.021686 5.925795 -6.848721 7.281801 8.898046 4.532185 18.207325 -152.790562 -2.60134 123.093452 -85.591685 53.889426 32.969967 10.255381 13.414906 30.902763 3.435125 -6.672217 23.001553 -88.080348 9.084685 139.702022 -146.980605 48.07122 -131.727194 4.491919 -30.671794 -24.271152 -31.197785 18.612037 114.880654 -18.47767 -27.385745 -26.372445 -49.229069 2.360633 31.710624 10.829463 -4.999376 -40.877003 11.096708 -10.263852 6.132534 -1.172211 8.56218 9.576576 163.656927 60.034344 -156.854215 125.952381 13.084005 -122.633937 168.838203 -51.454017 -134.689425 -28.946714 10.058869 -20.596219 22.086007 35.08255 46.786577 -74.620915 78.169495 19.920351 172.391926 21.119404 129.463713 170.879754 -9.339053 145.449269 95.080784 47.507248 -96.182843 -6.166379 -7.007642 7.168914 -18.910403 -12.590947 -4.650373 71.138446 63.206877 -151.513929 46.914064 3.785561 69.244932 99.528562 39.602203 2.280807 -46.606461 -75.022447 -180.0 88.580475 -56.85366 169.363369 83.70542 65.114679 -9.629473
-10.1891 61.2205 -13.756599999999999 -27.001744 -62.628958 19.487474 11.896681 20.228056 148.64576 -4.776587 15.825171 -131.672193 14.189125 12.623021 99.479879 -8.785804 2.541222 -68.984966 -12.391061 7.851506 -64.598936 -175.353636 1.112859 26.925146 -2.758874 59.215809 2.200928 169.46014 75.831831 -155.249189 4.775199 -70.914108 -135.55624 -141.746689 21.642534 99.418819 -172.886407 -1.875717 76.02644 -30.344905 -79.5716 -29.515356 -170.527611 -38.228779 126.170932 -10.400134 -55.315923 -27.871444 -96.320627 23.910775 104.530341 -15.754023 69.473028 -7.939483 -93.855327 9.80576 150.502046 91.923364 27.092102 -47.528648 -99.507712 -24.43431 -125.62805 42.234254 -43.087524 -49.834237 -31.172475 -42.919974 -27.983349 92.400411 -39.780257 120.91392 -31.468909 -44.079567 53.205192 173.312801 1.083311 -141.04542 31.898977 42.356647 -10.339438 72.921233 57.939532 -92.232128 140.20353 -14.476346 -125.627005 -23.96892 -6.702972 17.705992 -177.822654 -50.133055 -104.715309 -87.097293 -17.000276 -74.166721 100.18473 -8.81417 154.777505 -31.821131 31.758025 -27.120555 24.390555 57.02647 -26.140487 87.223654 -8.326598 144.328284 163.625351 83.943274 -0.0 166.333826 59.337418 -164.216011 -73.616434 -63.983905 35.765086 173.660959 17.204783 -40.751486 118.064428 39.251628 -2.064225 -68.711881 -65.101311 -67.238464 -82.190923 9.309987 126.167837 5.228415 -17.529809 -67.532164
-9.3806 60.563100000000006 -13.453899999999999 -25.634865 -62.563104 17.405765 14.269094 25.253999 -30.79988 4.306797 -20.21138 45.607782 12.824749 16.733041 119.488396 -12.88829 7.451977 -87.0105 -14.123903 8.966186 -64.65925 -158.541667 4.659256 24.235423 -148.651811 -38.79403 -175.019101 49.380975 -53.08232 39.640044 66.123006 -67.967148 -79.294282 -128.782783 37.63585 83.829109 10.213757 -18.108122 17.68394 39.70505 -31.048987 -23.011446 -160.046084 -15.43091 121.131101 -177.789955 25.639974 105.399315 -130.177885 -4.816195 120.793343 -11.210629 -66.903994 -55.144116 -102.994487 5.189332 166.165098 83.07494 12.332951 -43.204789 30.790051 4.362826 5.192558 136.812834 -40.942236 152.996446 174.31757 -34.017487 -137.691519 -146.648393 -0.941933 177.683156 -7.436103 -70.174271 -42.930351 13.116738 18.554624 0.120436 -52.33053 -50.938912 1.065339 110.554678 44.182224 -31.495861 -33.408911 -47.708819 5.7309 88.144156 40.295244 -65.173041 173.246861 -37.215074 -114.384299 -9.477454 -3.151413 -60.559487 -42.576534 20.573859 15.396361 -165.666032 32.058167 168.819164 26.583303 4.51364 -10.087031 -151.612372 53.037957 64.695656 -6.850274 -8.526914 7.764447 -18.41702 -11.391162 -4.133517 68.5341 53.802123 -33.428887 143.176276 -37.784389 58.504099 -101.108153 35.618313 2.16962 -174.427464 -1.00283 -100.169693 -85.055579 -65.825386 -177.171773 -92.223355 -54.278158 164.213696
-8.5854 59.88250000000001 -12.759699999999999 -26.24627 -65.009021 16.989036 13.194756 27.25432 -27.111015 3.884656 -20.182216 40.989983 -4.611543 21.178138 -126.357463 6.101156 26.147154 162.101706 -12.753691 8.352611 -66.318653 -109.404096 13.412874 18.859956 -6.724052 -42.681944 -22.788664 41.746647 -80.307478 44.641886 -38.959836 9.159111 121.307103 -38.642857 -81.591367 -79.27524 -179.821547 3.493548 70.965791 -71.899023 -86.208765 -62.021745 -147.723957 6.065653 111.489202 -7.226835 -20.096181 21.734874 4.526532 21.629249 29.509874 -161.198361 55.286768 115.077655 -37.801133 -71.870552 -96.625869 103.775771 -15.380279 46.161658 -114.9433 15.71043 -150.722909 -148.218592 32.599202 -75.161596 -87.799516 -67.40022 -66.115207 -118.47941 52.47438 115.94449 108.578265 62.506462 -49.063275 -156.851777 -53.360991 -134.152512 -17.882661 -8.31704 14.220809 36.337483 14.786318 23.29917 172.196559 -53.204296 -117.849063 156.722314 -21.128328 -108.492996 -89.777977 -56.490559 -55.564674 48.666718 -25.114534 -12.724045 111.850631 -1.196146 157.277874 -30.766461 2.172462 -5.225775 174.702289 3.371644 153.924016 161.02133 26.438108 -156.197645 57.73845 42.33848 65.820687 -104.062086 44.22236 0.0 83.960139 22.997544 12.237921 -111.761864 -58.979397 -168.060976 -178.203996 36.438506 -2.925301 -119.954078 -24.4801 76.569395 75.132979 35.547639 -111.479047 137.544626 -25.117424 -26.398187
